<svg width="32" height="32" viewBox="0 0 32 32" fill="none" xmlns="http://www.w3.org/2000/svg">
<g clip-path="url(#clip0_1593_801)">
<path fill-rule="evenodd" clip-rule="evenodd" d="M17.4342 14.0557C17.9441 13.7964 18.5928 13.4147 19.2423 12.8917C19.3792 13.1818 19.3942 13.435 19.3237 13.6394C19.2737 13.7834 19.1795 13.9087 19.0556 14.0084C18.9214 14.1161 18.7538 14.1945 18.5686 14.2369C18.2172 14.3177 17.8068 14.2705 17.4342 14.0557ZM17.5226 16.7126L18.1975 17.1102C16.8195 17.898 16.4449 19.3608 15.9999 20.7856C15.555 19.3608 15.1803 17.898 13.8023 17.1102L14.4772 16.7126C14.5425 16.6874 14.5983 16.6418 14.6366 16.5824C14.675 16.5229 14.6938 16.4525 14.6906 16.3814C14.6287 15.0471 14.982 14.457 15.4584 14.0865C15.6293 13.9538 15.8158 13.8872 15.9999 13.8872C16.184 13.8872 16.3705 13.9538 16.5415 14.0865C17.0179 14.457 17.3711 15.0471 17.3093 16.3814C17.306 16.4525 17.3249 16.5229 17.3632 16.5824C17.4015 16.6418 17.4573 16.6874 17.5226 16.7126ZM15.9999 8C16.78 8.02136 17.5621 8.17584 18.2408 8.47634C18.7108 8.6847 19.1493 8.95993 19.5465 9.28905C19.7258 9.43763 19.8735 9.58117 20.0361 9.74641C20.4748 9.76188 21.116 9.26474 21.4137 8.79957C20.9014 10.5126 18.5637 12.5355 16.9453 13.3096C16.9447 13.3093 16.9442 13.3089 16.9437 13.3086C16.6533 13.0824 16.3266 12.9693 15.9999 12.9693C15.6732 12.9693 15.3466 13.0824 15.0561 13.3086C15.0556 13.3089 15.0552 13.3094 15.0545 13.3096C13.4361 12.5355 11.0985 10.5126 10.5862 8.79957C10.8838 9.26474 11.525 9.76188 11.9637 9.74641C12.1264 9.58123 12.2741 9.43763 12.4533 9.28905C12.8505 8.95993 13.289 8.6847 13.759 8.47634C14.4378 8.17584 15.2198 8.02136 15.9999 8ZM14.5656 14.0557C14.0558 13.7964 13.407 13.4147 12.7576 12.8917C12.6206 13.1818 12.6056 13.435 12.6761 13.6394C12.7262 13.7834 12.8204 13.9087 12.9442 14.0084C13.0785 14.1161 13.246 14.1945 13.4312 14.2369C13.7827 14.3177 14.193 14.2705 14.5656 14.0557Z" fill="#7A868D"/>
<path fill-rule="evenodd" clip-rule="evenodd" d="M19.9537 12.2509C20.3113 11.8829 20.6263 11.4755 20.8797 11.112L21.0083 11.359C21.4226 12.2043 21.6378 13.0462 21.6378 13.9936L21.6369 15.4971L21.6447 16.2765C21.6747 18.1899 22.0806 20.1258 23 21.8974L21.0763 20.3152L19.7151 22.5682L18.2851 21.1951L16 24.9776L13.7149 21.1952L12.2849 22.5683L10.9238 20.3153L9 21.8975C9.91944 20.1259 10.3253 18.19 10.3554 16.2766L10.3632 15.4972L10.3623 13.9937C10.3623 13.0462 10.5774 12.2043 10.9918 11.359L11.1204 11.112C11.3737 11.4755 11.6887 11.8829 12.0463 12.251L11.9347 12.4876C11.7177 12.9471 11.6459 13.4609 11.8149 13.9495C11.9238 14.2642 12.1227 14.5341 12.379 14.7402C12.6279 14.9403 12.9224 15.0751 13.2308 15.146C13.4317 15.1921 13.6364 15.2111 13.8397 15.2046C13.7923 15.4789 13.7716 15.7635 13.7702 16.0534L11.9556 17.1224L13.3559 17.9231C13.4678 17.9871 13.5744 18.0604 13.6744 18.1423C14.8289 19.1996 15.5231 22.3274 16.0001 23.8552C16.4771 22.3274 17.1712 19.1996 18.3257 18.1423C18.4258 18.0604 18.5323 17.9871 18.6443 17.9231L20.0446 17.1224L18.2299 16.0534C18.2286 15.7635 18.2078 15.4789 18.1604 15.2046C18.3637 15.2111 18.5684 15.1921 18.7693 15.146C19.0777 15.0751 19.3723 14.9403 19.6211 14.7402C19.8774 14.5341 20.0763 14.2642 20.1852 13.9495C20.3542 13.4609 20.2823 12.9471 20.0654 12.4876L19.9538 12.251L19.9537 12.2509Z" fill="#7A868D"/>
</g>
<path d="M31.3 16C31.3 24.4501 24.4501 31.3 16 31.3C7.54986 31.3 0.699973 24.4501 0.699973 16C0.699973 7.54986 7.54986 0.699973 16 0.699973C24.4501 0.699973 31.3 7.54986 31.3 16Z" stroke="#DFE6EB" stroke-width="0.7"/>
<path d="M31.3 16C31.3 24.4501 24.4501 31.3 16 31.3C7.54986 31.3 0.699973 24.4501 0.699973 16C0.699973 7.54986 7.54986 0.699973 16 0.699973C24.4501 0.699973 31.3 7.54986 31.3 16Z" stroke="#DFE6EB"  stroke-width="0.7"/>
<defs>
<clipPath id="clip0_1593_801">
<rect width="14" height="17" fill="white" transform="translate(9 8)"/>
</clipPath>
</defs>
</svg>
